<svg xmlns="http://www.w3.org/2000/svg" width="32" height="32" viewBox="0 0 32 32">
  <defs>
    <!-- Green glow from top-left -->
    <radialGradient id="greenGlow" cx="20%" cy="10%" r="50%" fx="20%" fy="10%">
      <stop offset="0%" style="stop-color:#63DF4E;stop-opacity:0.4"/>
      <stop offset="100%" style="stop-color:#63DF4E;stop-opacity:0"/>
    </radialGradient>
    <!-- Purple glow from bottom-right -->
    <radialGradient id="purpleGlow" cx="80%" cy="90%" r="50%" fx="80%" fy="90%">
      <stop offset="0%" style="stop-color:#BF71F2;stop-opacity:0.35"/>
      <stop offset="100%" style="stop-color:#BF71F2;stop-opacity:0"/>
    </radialGradient>
  </defs>
  <!-- Base Infinite Blue -->
  <rect width="32" height="32" rx="7" ry="7" fill="#032D42"/>
  <!-- Green glow overlay -->
  <rect width="32" height="32" rx="7" ry="7" fill="url(#greenGlow)"/>
  <!-- Purple glow overlay -->
  <rect width="32" height="32" rx="7" ry="7" fill="url(#purpleGlow)"/>
  <!-- Wasabi Green sparkle icon -->
  <g transform="translate(4, 4)" stroke="#63DF4E" stroke-width="1.8" stroke-linecap="round" stroke-linejoin="round" fill="none">
    <path d="M9.937 15.5A2 2 0 0 0 8.5 14.063l-6.135-1.582a.5.5 0 0 1 0-.962L8.5 9.936A2 2 0 0 0 9.937 8.5l1.582-6.135a.5.5 0 0 1 .963 0L14.063 8.5A2 2 0 0 0 15.5 9.937l6.135 1.581a.5.5 0 0 1 0 .964L15.5 14.063a2 2 0 0 0-1.437 1.437l-1.582 6.135a.5.5 0 0 1-.963 0z"/>
    <path d="M20 3v4"/>
    <path d="M22 5h-4"/>
    <path d="M4 17v2"/>
    <path d="M5 18H3"/>
  </g>
</svg>
